<svg width="171" height="170" viewBox="0 0 171 170" fill="none" xmlns="http://www.w3.org/2000/svg">
    <path d="M62.7337 89.9807C52.9261 89.9807 44.9474 97.9594 44.9474 107.767V152.214C44.9474 162.021 52.9261 170 62.7337 170C72.5412 170 80.5199 162.022 80.5199 152.214V107.767C80.5199 97.9594 72.5412 89.9807 62.7337 89.9807ZM34.9861 89.9807H17.767C8.27223 89.9807 0.547852 97.7054 0.547852 107.2C0.547852 116.695 8.27256 124.419 17.767 124.419C27.2614 124.419 34.9861 116.694 34.9861 107.2V89.9807Z" fill="#FF4340"/>
    <path d="M0.5 62.2334C0.5 72.0409 8.47871 80.0197 18.2863 80.0197H62.7329C72.5408 80.0197 80.5195 72.0409 80.5195 62.2334C80.5195 52.4259 72.5408 44.4472 62.7333 44.4472H18.2863C8.47871 44.4468 0.5 52.4259 0.5 62.2334ZM63.3004 34.4859H80.5195V17.2667C80.5195 7.77198 72.7948 0.0476074 63.3004 0.0476074C53.8056 0.0476074 46.0812 7.77231 46.0812 17.2667C46.0812 26.7612 53.8056 34.4859 63.3004 34.4859Z" fill="#36C6FF"/>
    <path d="M108.267 80.0198C118.074 80.0198 126.053 72.0411 126.053 62.2335V17.7865C126.053 7.97896 118.074 0.000244141 108.267 0.000244141C98.4592 0.000244141 90.4805 7.97896 90.4805 17.7865V62.2332C90.4805 72.0411 98.4592 80.0198 108.267 80.0198ZM136.014 80.0198H153.233C162.728 80.0198 170.453 72.2951 170.453 62.8006C170.453 53.3059 162.728 45.5815 153.233 45.5815C143.739 45.5815 136.014 53.3062 136.014 62.8006V80.0198Z" fill="#0DC46E"/>
    <path d="M170.5 107.767C170.5 97.9594 162.521 89.9807 152.714 89.9807H108.267C98.4592 89.9807 90.4805 97.9594 90.4805 107.767C90.4805 117.574 98.4592 125.553 108.267 125.553H152.713C162.521 125.554 170.5 117.574 170.5 107.767ZM107.7 135.514H90.4805V152.734C90.4805 162.228 98.2052 169.953 107.7 169.953C117.194 169.953 124.919 162.228 124.919 152.734C124.919 143.239 117.194 135.514 107.7 135.514Z" fill="#FDCB02"/>
</svg>
